<svg version="1" xmlns="http://www.w3.org/2000/svg" width="754.667" height="754.667" viewBox="0 0 566.000000 566.000000"><path d="M259.5 1.1c-22.8 1.9-52.3 8.4-74.1 16.4-24.9 9.1-58.2 27.9-79.4 44.9C95.1 71.2 76.7 88.8 77.2 90c.2.4 46.6 56.5 103.2 124.5 98.9 119 102.9 123.6 104.6 121.8 1.4-1.5 110.4-132.4 188.2-226L490 90.1l-10.3-10c-21.1-20.7-43.2-36.3-71.2-50.1-9.9-4.9-22.4-10.5-27.9-12.5C342.8 3.7 299.4-2.2 259.5 1.1zM2.4 246.2c-2.6 18.1-2.6 56.1 0 73.3 5.4 37.1 16.5 70.9 32.8 100 48.4 86.7 135.3 140.8 234.4 146.1l12.9.7-1.5-2.1C278.2 560.1 5.5 233.1 4.9 233.1c-.4-.1-1.5 5.9-2.5 13.1zM423 399.2C347.4 490 285.3 564.8 285.1 565.3c-.2.7 3.9.8 12 .3 118.7-6.7 219.1-83.9 255.2-196.3 13.2-41 16.9-85.4 10.6-127.8-.6-4.1-1.4-7.5-1.8-7.4-.3 0-62.5 74.3-138.1 165.1z"/></svg>